<?xml version="1.0" standalone="no"?>
<!DOCTYPE svg PUBLIC "-//W3C//DTD SVG 20010904//EN"
 "http://www.w3.org/TR/2001/REC-SVG-20010904/DTD/svg10.dtd">
<svg version="1.0" xmlns="http://www.w3.org/2000/svg"
 width="100.000000pt" height="100.000000pt" viewBox="0 0 100.000000 100.000000"
 preserveAspectRatio="xMidYMid meet">
<metadata>
Created by potrace 1.11, written by Peter Selinger 2001-2013
</metadata>
<g transform="translate(0.000000,100.000000) scale(0.100000,-0.100000)"
fill="#000000" stroke="none">
<path d="M466 705 c-16 -53 -33 -98 -37 -101 -5 -2 -33 9 -64 27 -30 17 -55
27 -55 22 0 -4 14 -32 30 -62 17 -30 29 -55 27 -57 -1 -1 -47 -16 -102 -32
-113 -34 -115 -30 30 -74 41 -13 75 -27 75 -31 0 -4 -11 -30 -25 -57 -14 -28
-22 -50 -19 -50 3 0 28 12 55 27 27 14 51 24 54 22 2 -3 17 -49 32 -102 15
-53 30 -97 34 -97 4 0 10 15 14 33 6 31 45 159 50 165 2 2 26 -8 54 -22 28
-14 53 -26 56 -26 3 0 -6 22 -20 50 -14 27 -25 53 -25 58 0 4 43 21 95 36 52
16 95 32 95 35 0 4 -43 20 -95 35 -52 16 -95 32 -95 35 0 3 14 30 30 60 17 30
30 56 30 58 0 2 -27 -10 -60 -27 -33 -16 -61 -30 -63 -30 -2 0 -16 45 -32 100
-17 55 -32 100 -35 100 -3 0 -19 -43 -34 -95z m58 -60 c10 -36 22 -68 27 -71
5 -2 26 5 49 16 22 11 40 17 40 14 0 -21 -55 -96 -76 -105 -35 -13 -104 -11
-134 4 -22 11 -69 79 -70 100 0 5 20 -3 45 -17 l45 -25 22 75 c12 41 25 74 28
74 3 0 14 -29 24 -65z"/>
</g>
</svg>
